<svg width="220" height="60" viewBox="0 0 220 60" fill="none" xmlns="http://www.w3.org/2000/svg">
  <!-- Text Part -->
  <path d="M24.708 44.296L17.428 22H11.5L4.22 44.296H9.968L11.428 39.44H17.5L18.96 44.296H24.708ZM12.672 35.068L14.428 29.428L16.184 35.068H12.672Z" fill="white"/>
  <path d="M27.7578 44.296V22H33.1498V36.928L39.7418 28.472H45.9978L39.2138 36.964L46.2778 44.296H39.8858L33.1498 37.348V44.296H27.7578Z" fill="white"/>
  <path d="M48.9995 44.296V22H54.3915V44.296H48.9995Z" fill="white"/>
  <path d="M63.6772 44.296V26.38H57.6772V22H75.3892V26.38H69.3892V44.296H63.6772Z" fill="white"/>
  <path d="M77.9771 44.296V22H94.7531V26.38H83.3691V30.628H93.6491V34.936H83.3691V39.944H94.7531V44.296H77.9771Z" fill="white"/>

  <!-- Neon overlay -->
  <path d="M24.708 44.296L17.428 22H11.5L4.22 44.296H9.968L11.428 39.44H17.5L18.96 44.296H24.708ZM12.672 35.068L14.428 29.428L16.184 35.068H12.672Z" stroke="#a239ca" stroke-width="0.5"/>
  <path d="M27.7578 44.296V22H33.1498V36.928L39.7418 28.472H45.9978L39.2138 36.964L46.2778 44.296H39.8858L33.1498 37.348V44.296H27.7578Z" stroke="#a239ca" stroke-width="0.5"/>
  <path d="M48.9995 44.296V22H54.3915V44.296H48.9995Z" stroke="#a239ca" stroke-width="0.5"/>
  <path d="M63.6772 44.296V26.38H57.6772V22H75.3892V26.38H69.3892V44.296H63.6772Z" stroke="#a239ca" stroke-width="0.5"/>
  <path d="M77.9771 44.296V22H94.7531V26.38H83.3691V30.628H93.6491V34.936H83.3691V39.944H94.7531V44.296H77.9771Z" stroke="#a239ca" stroke-width="0.5"/>

  <!-- Katana design element -->
  <path d="M138 10L180 52" stroke="#a239ca" stroke-width="4"/>
  <path d="M150 10L192 52" stroke="#5f3dc4" stroke-width="4"/>
  <path d="M172 19L111 19" stroke="#a239ca" stroke-width="4"/>
  <path d="M168 32L107 32" stroke="#5f3dc4" stroke-width="4"/>

  <!-- Anime Shop text -->
  <path d="M111.058 47.768C111.058 46.648 111.274 45.636 111.706 44.732C112.138 43.828 112.738 43.06 113.506 42.428C114.29 41.78 115.218 41.284 116.29 40.94C117.378 40.596 118.562 40.424 119.842 40.424C121.122 40.424 122.298 40.596 123.37 40.94C124.458 41.284 125.394 41.78 126.178 42.428C126.962 43.06 127.562 43.828 127.978 44.732C128.41 45.636 128.626 46.648 128.626 47.768C128.626 48.872 128.41 49.884 127.978 50.804C127.562 51.708 126.962 52.484 126.178 53.132C125.394 53.764 124.458 54.252 123.37 54.596C122.298 54.94 121.122 55.112 119.842 55.112C118.562 55.112 117.378 54.94 116.29 54.596C115.218 54.252 114.29 53.764 113.506 53.132C112.738 52.484 112.138 51.708 111.706 50.804C111.274 49.884 111.058 48.872 111.058 47.768ZM115.482 47.768C115.482 48.312 115.57 48.816 115.746 49.28C115.938 49.728 116.21 50.12 116.562 50.456C116.914 50.776 117.338 51.028 117.834 51.212C118.33 51.38 118.886 51.464 119.502 51.464C120.102 51.464 120.65 51.38 121.146 51.212C121.658 51.028 122.082 50.776 122.418 50.456C122.77 50.12 123.042 49.728 123.234 49.28C123.426 48.816 123.522 48.312 123.522 47.768C123.522 47.24 123.426 46.752 123.234 46.304C123.042 45.84 122.77 45.448 122.418 45.128C122.082 44.792 121.658 44.54 121.146 44.372C120.65 44.188 120.102 44.096 119.502 44.096C118.886 44.096 118.33 44.188 117.834 44.372C117.338 44.54 116.914 44.792 116.562 45.128C116.21 45.448 115.938 45.84 115.746 46.304C115.57 46.752 115.482 47.24 115.482 47.768Z" fill="white" stroke="#a239ca" stroke-width="0.5"/>
  <path d="M130.311 54.8V40.736H134.223V42.548C134.655 41.868 135.255 41.336 136.023 40.952C136.791 40.568 137.679 40.376 138.687 40.376C139.295 40.376 139.863 40.44 140.391 40.568C140.935 40.696 141.415 40.908 141.831 41.204C142.263 41.5 142.615 41.892 142.887 42.38C143.175 42.852 143.367 43.432 143.463 44.12C143.895 42.98 144.567 42.14 145.479 41.6C146.391 41.044 147.463 40.766 148.695 40.766C149.623 40.766 150.423 40.908 151.095 41.192C151.783 41.476 152.351 41.88 152.799 42.404C153.247 42.928 153.575 43.556 153.783 44.288C154.007 45.004 154.119 45.8 154.119 46.676V54.8H150.159V47.564C150.159 46.86 150.111 46.268 150.015 45.788C149.919 45.292 149.759 44.896 149.535 44.6C149.327 44.304 149.055 44.096 148.719 43.976C148.383 43.856 147.975 43.796 147.495 43.796C147.047 43.796 146.647 43.868 146.295 44.012C145.943 44.156 145.647 44.372 145.407 44.66C145.167 44.948 144.987 45.316 144.867 45.764C144.747 46.196 144.687 46.704 144.687 47.288V54.8H140.727V47.24C140.727 46.6 140.675 46.052 140.571 45.596C140.483 45.14 140.331 44.772 140.115 44.492C139.899 44.212 139.619 44.012 139.275 43.892C138.931 43.756 138.519 43.688 138.039 43.688C137.591 43.688 137.183 43.764 136.815 43.916C136.463 44.052 136.159 44.268 135.903 44.564C135.647 44.844 135.447 45.208 135.303 45.656C135.159 46.088 135.087 46.608 135.087 47.216V54.8H130.311Z" fill="white" stroke="#a239ca" stroke-width="0.5"/>
  <path d="M156.261 54.8V40.736H160.173V42.548C160.605 41.868 161.205 41.336 161.973 40.952C162.741 40.568 163.629 40.376 164.637 40.376C165.245 40.376 165.813 40.44 166.341 40.568C166.885 40.696 167.365 40.908 167.781 41.204C168.213 41.5 168.565 41.892 168.837 42.38C169.125 42.852 169.317 43.432 169.413 44.12C169.845 42.98 170.517 42.14 171.429 41.6C172.341 41.044 173.413 40.766 174.645 40.766C175.573 40.766 176.373 40.908 177.045 41.192C177.733 41.476 178.301 41.88 178.749 42.404C179.197 42.928 179.525 43.556 179.733 44.288C179.957 45.004 180.069 45.8 180.069 46.676V54.8H176.109V47.564C176.109 46.86 176.061 46.268 175.965 45.788C175.869 45.292 175.709 44.896 175.485 44.6C175.277 44.304 175.005 44.096 174.669 43.976C174.333 43.856 173.925 43.796 173.445 43.796C172.997 43.796 172.597 43.868 172.245 44.012C171.893 44.156 171.597 44.372 171.357 44.66C171.117 44.948 170.937 45.316 170.817 45.764C170.697 46.196 170.637 46.704 170.637 47.288V54.8H166.677V47.24C166.677 46.6 166.625 46.052 166.521 45.596C166.433 45.14 166.281 44.772 166.065 44.492C165.849 44.212 165.569 44.012 165.225 43.892C164.881 43.756 164.469 43.688 163.989 43.688C163.541 43.688 163.133 43.764 162.765 43.916C162.413 44.052 162.109 44.268 161.853 44.564C161.597 44.844 161.397 45.208 161.253 45.656C161.109 46.088 161.037 46.608 161.037 47.216V54.8H156.261Z" fill="white" stroke="#a239ca" stroke-width="0.5"/>
  <path d="M182.211 54.8V40.736H186.123V42.548C186.555 41.868 187.155 41.336 187.923 40.952C188.691 40.568 189.579 40.376 190.587 40.376C191.195 40.376 191.763 40.44 192.291 40.568C192.835 40.696 193.315 40.908 193.731 41.204C194.163 41.5 194.515 41.892 194.787 42.38C195.075 42.852 195.267 43.432 195.363 44.12C195.795 42.98 196.467 42.14 197.379 41.6C198.291 41.044 199.363 40.766 200.595 40.766C201.523 40.766 202.323 40.908 202.995 41.192C203.683 41.476 204.251 41.88 204.699 42.404C205.147 42.928 205.475 43.556 205.683 44.288C205.907 45.004 206.019 45.8 206.019 46.676V54.8H202.059V47.564C202.059 46.86 202.011 46.268 201.915 45.788C201.819 45.292 201.659 44.896 201.435 44.6C201.227 44.304 200.955 44.096 200.619 43.976C200.283 43.856 199.875 43.796 199.395 43.796C198.947 43.796 198.547 43.868 198.195 44.012C197.843 44.156 197.547 44.372 197.307 44.66C197.067 44.948 196.887 45.316 196.767 45.764C196.647 46.196 196.587 46.704 196.587 47.288V54.8H192.627V47.24C192.627 46.6 192.575 46.052 192.471 45.596C192.383 45.14 192.231 44.772 192.015 44.492C191.799 44.212 191.519 44.012 191.175 43.892C190.831 43.756 190.419 43.688 189.939 43.688C189.491 43.688 189.083 43.764 188.715 43.916C188.363 44.052 188.059 44.268 187.803 44.564C187.547 44.844 187.347 45.208 187.203 45.656C187.059 46.088 186.987 46.608 186.987 47.216V54.8H182.211Z" fill="white" stroke="#a239ca" stroke-width="0.5"/>

  <!-- Circular glow effect -->
  <circle cx="105" cy="33" r="80" fill="url(#paint0_radial_0_1)" fill-opacity="0.2"/>

  <!-- Gradients -->
  <defs>
    <radialGradient id="paint0_radial_0_1" cx="0" cy="0" r="1" gradientUnits="userSpaceOnUse" gradientTransform="translate(105 33) rotate(90) scale(80)">
      <stop stop-color="#a239ca"/>
      <stop offset="1" stop-color="#121212" stop-opacity="0"/>
    </radialGradient>
  </defs>

  <!-- Background Rect -->
  <rect width="220" height="60" fill="#121212" fill-opacity="0.8" rx="8" ry="8" />
</svg>
